<svg width="100" height="154" viewBox="0 0 100 154" fill="none" xmlns="http://www.w3.org/2000/svg">
<path d="M8 1H92C95.866 1 99 4.13401 99 8V39H1V8C1 4.25486 3.94111 1.19633 7.63965 1.00879L8 1Z" fill="white"/>
<path d="M8 1H92C95.866 1 99 4.13401 99 8V39H1V8C1 4.25486 3.94111 1.19633 7.63965 1.00879L8 1Z" stroke="black" stroke-width="2"/>
<circle cx="20" cy="20" r="9" fill="white" stroke="black" stroke-width="2"/>
<path d="M17.6455 16.9984C17.9211 16.9984 18.189 16.9754 18.4492 16.9295C18.7095 16.8835 18.9429 16.807 19.1496 16.6998C19.3639 16.5927 19.5438 16.4549 19.6892 16.2865C19.8423 16.1181 19.9418 15.9114 19.9877 15.6665H21.0555V23.7035H19.6203V18.0317H17.6455V16.9984Z" fill="black"/>
<path d="M42.5376 17.6172C42.4912 17.183 42.2957 16.8449 41.951 16.603C41.6096 16.361 41.1655 16.2401 40.6186 16.2401C40.2341 16.2401 39.9044 16.2981 39.6293 16.4141C39.3542 16.5301 39.1437 16.6875 38.9979 16.8864C38.852 17.0852 38.7775 17.3123 38.7741 17.5675C38.7741 17.7796 38.8222 17.9635 38.9183 18.1193C39.0178 18.2751 39.152 18.4077 39.321 18.517C39.4901 18.6231 39.6773 18.7126 39.8828 18.7855C40.0883 18.8584 40.2955 18.9197 40.5043 18.9695L41.4588 19.2081C41.8433 19.2976 42.2128 19.4186 42.5675 19.571C42.9254 19.7235 43.2453 19.9157 43.527 20.1477C43.812 20.3797 44.0374 20.6598 44.2031 20.9879C44.3688 21.3161 44.4517 21.7005 44.4517 22.1413C44.4517 22.7379 44.2992 23.2633 43.9943 23.7173C43.6894 24.1681 43.2486 24.5211 42.6719 24.7763C42.0985 25.0282 41.4041 25.1541 40.5888 25.1541C39.7966 25.1541 39.1089 25.0315 38.5256 24.7862C37.9455 24.541 37.4915 24.183 37.1634 23.7124C36.8385 23.2417 36.6629 22.6683 36.6364 21.9922H38.451C38.4775 22.3468 38.5869 22.6418 38.7791 22.8771C38.9714 23.1125 39.2216 23.2881 39.5298 23.4041C39.8414 23.5201 40.1894 23.5781 40.5739 23.5781C40.9749 23.5781 41.3262 23.5185 41.6278 23.3991C41.9328 23.2765 42.1714 23.1075 42.3438 22.892C42.5161 22.6733 42.6039 22.4181 42.6072 22.1264C42.6039 21.8613 42.526 21.6425 42.3736 21.4702C42.2211 21.2945 42.0073 21.1487 41.7322 21.0327C41.4605 20.9134 41.1423 20.8073 40.7777 20.7145L39.6193 20.4162C38.7808 20.2008 38.1179 19.8743 37.6307 19.4368C37.1468 18.996 36.9048 18.411 36.9048 17.6818C36.9048 17.0819 37.0672 16.5566 37.392 16.1058C37.7202 15.6551 38.166 15.3054 38.7294 15.0568C39.2929 14.8049 39.9309 14.679 40.6435 14.679C41.366 14.679 41.9991 14.8049 42.5426 15.0568C43.0895 15.3054 43.5187 15.6518 43.8303 16.0959C44.1418 16.5367 44.3026 17.0438 44.3125 17.6172H42.5376ZM47.794 25.1541C47.3101 25.1541 46.8742 25.0679 46.4864 24.8956C46.102 24.7199 45.797 24.4614 45.5717 24.12C45.3496 23.7786 45.2386 23.3577 45.2386 22.8572C45.2386 22.4264 45.3181 22.0701 45.4772 21.7884C45.6363 21.5066 45.8534 21.2812 46.1285 21.1122C46.4036 20.9432 46.7135 20.8156 47.0582 20.7294C47.4062 20.6399 47.7658 20.5753 48.137 20.5355C48.5844 20.4891 48.9474 20.4477 49.2258 20.4112C49.5042 20.3714 49.7064 20.3118 49.8323 20.2322C49.9616 20.1494 50.0262 20.0218 50.0262 19.8494V19.8196C50.0262 19.4451 49.9152 19.1551 49.6931 18.9496C49.471 18.7441 49.1512 18.6413 48.7336 18.6413C48.2928 18.6413 47.9431 18.7375 47.6846 18.9297C47.4294 19.1219 47.257 19.349 47.1675 19.6108L45.4871 19.3722C45.6197 18.9081 45.8385 18.5204 46.1434 18.2088C46.4483 17.8939 46.8212 17.6586 47.262 17.5028C47.7028 17.3438 48.19 17.2642 48.7236 17.2642C49.0915 17.2642 49.4578 17.3073 49.8224 17.3935C50.1869 17.4796 50.52 17.6222 50.8217 17.821C51.1233 18.0166 51.3652 18.2834 51.5475 18.6214C51.7331 18.9595 51.8259 19.3821 51.8259 19.8892V25H50.0958V23.951H50.0361C49.9268 24.1631 49.7726 24.362 49.5738 24.5476C49.3782 24.7299 49.1313 24.8774 48.833 24.9901C48.538 25.0994 48.1917 25.1541 47.794 25.1541ZM48.2613 23.8317C48.6226 23.8317 48.9358 23.7604 49.2009 23.6179C49.4661 23.4721 49.6699 23.2798 49.8124 23.0412C49.9583 22.8026 50.0312 22.5424 50.0312 22.2607V21.3608C49.9748 21.4072 49.8787 21.4503 49.7428 21.4901C49.6102 21.5298 49.4611 21.5646 49.2954 21.5945C49.1297 21.6243 48.9656 21.6508 48.8032 21.674C48.6408 21.6972 48.4999 21.7171 48.3806 21.7337C48.1121 21.7701 47.8718 21.8298 47.6597 21.9126C47.4476 21.9955 47.2802 22.1115 47.1576 22.2607C47.035 22.4065 46.9736 22.5954 46.9736 22.8274C46.9736 23.1589 47.0946 23.4091 47.3366 23.5781C47.5785 23.7472 47.8868 23.8317 48.2613 23.8317ZM55.413 25.1541C54.9291 25.1541 54.4933 25.0679 54.1055 24.8956C53.721 24.7199 53.4161 24.4614 53.1907 24.12C52.9687 23.7786 52.8576 23.3577 52.8576 22.8572C52.8576 22.4264 52.9372 22.0701 53.0963 21.7884C53.2553 21.5066 53.4724 21.2812 53.7475 21.1122C54.0226 20.9432 54.3325 20.8156 54.6772 20.7294C55.0252 20.6399 55.3848 20.5753 55.7561 20.5355C56.2035 20.4891 56.5664 20.4477 56.8448 20.4112C57.1232 20.3714 57.3254 20.3118 57.4514 20.2322C57.5806 20.1494 57.6453 20.0218 57.6453 19.8494V19.8196C57.6453 19.4451 57.5342 19.1551 57.3122 18.9496C57.0901 18.7441 56.7703 18.6413 56.3526 18.6413C55.9118 18.6413 55.5622 18.7375 55.3036 18.9297C55.0484 19.1219 54.8761 19.349 54.7866 19.6108L53.1062 19.3722C53.2388 18.9081 53.4575 18.5204 53.7625 18.2088C54.0674 17.8939 54.4402 17.6586 54.8811 17.5028C55.3219 17.3438 55.8091 17.2642 56.3427 17.2642C56.7106 17.2642 57.0768 17.3073 57.4414 17.3935C57.806 17.4796 58.1391 17.6222 58.4407 17.821C58.7423 18.0166 58.9843 18.2834 59.1666 18.6214C59.3522 18.9595 59.445 19.3821 59.445 19.8892V25H57.7149V23.951H57.6552C57.5458 24.1631 57.3917 24.362 57.1928 24.5476C56.9973 24.7299 56.7504 24.8774 56.4521 24.9901C56.1571 25.0994 55.8107 25.1541 55.413 25.1541ZM55.8803 23.8317C56.2416 23.8317 56.5548 23.7604 56.82 23.6179C57.0851 23.4721 57.289 23.2798 57.4315 23.0412C57.5773 22.8026 57.6502 22.5424 57.6502 22.2607V21.3608C57.5939 21.4072 57.4978 21.4503 57.3619 21.4901C57.2293 21.5298 57.0802 21.5646 56.9144 21.5945C56.7487 21.6243 56.5847 21.6508 56.4223 21.674C56.2598 21.6972 56.119 21.7171 55.9997 21.7337C55.7312 21.7701 55.4909 21.8298 55.2788 21.9126C55.0667 21.9955 54.8993 22.1115 54.7767 22.2607C54.654 22.4065 54.5927 22.5954 54.5927 22.8274C54.5927 23.1589 54.7137 23.4091 54.9556 23.5781C55.1976 23.7472 55.5058 23.8317 55.8803 23.8317ZM64.6478 17.3636V18.7557H60.2579V17.3636H64.6478ZM61.3417 15.5341H63.1415V22.7031C63.1415 22.9451 63.1779 23.1307 63.2508 23.2599C63.3271 23.3859 63.4265 23.4721 63.5491 23.5185C63.6718 23.5649 63.8076 23.5881 63.9568 23.5881C64.0695 23.5881 64.1722 23.5798 64.265 23.5632C64.3612 23.5466 64.4341 23.5317 64.4838 23.5185L64.7871 24.9254C64.6909 24.9586 64.5534 24.995 64.3744 25.0348C64.1987 25.0746 63.9833 25.0978 63.7281 25.1044C63.2773 25.1177 62.8713 25.0497 62.5101 24.9006C62.1488 24.7481 61.8621 24.5128 61.65 24.1946C61.4412 23.8764 61.3384 23.4787 61.3417 23.0014V15.5341Z" fill="black"/>
<rect x="1" y="39" width="98" height="38" fill="white"/>
<rect x="1" y="39" width="98" height="38" stroke="black" stroke-width="2"/>
<circle cx="20" cy="58" r="9" fill="white" stroke="black" stroke-width="2"/>
<path d="M22.973 61.7036H17.4849C17.4925 61.0377 17.6533 60.456 17.9671 59.9585C18.2809 59.4609 18.7096 59.0285 19.253 58.661C19.5133 58.4697 19.785 58.286 20.0682 58.1099C20.3514 57.9262 20.6117 57.731 20.8489 57.5244C21.0862 57.3177 21.2814 57.0957 21.4345 56.8585C21.5876 56.6135 21.6679 56.3341 21.6756 56.0203C21.6756 55.8749 21.6565 55.7218 21.6182 55.561C21.5876 55.3926 21.5225 55.2396 21.423 55.1018C21.3235 54.9564 21.1857 54.8377 21.0097 54.7459C20.8336 54.6464 20.604 54.5966 20.3208 54.5966C20.0605 54.5966 19.8424 54.6502 19.6663 54.7573C19.4979 54.8568 19.3602 54.9985 19.253 55.1822C19.1535 55.3582 19.077 55.5687 19.0234 55.8136C18.9775 56.0586 18.9507 56.3226 18.943 56.6059H17.6341C17.6341 56.1619 17.6915 55.7524 17.8063 55.3773C17.9288 54.9946 18.1087 54.6655 18.346 54.3899C18.5833 54.1144 18.8703 53.9001 19.2071 53.747C19.5515 53.5862 19.9496 53.5059 20.4012 53.5059C20.891 53.5059 21.3005 53.5862 21.6297 53.747C21.9588 53.9077 22.2229 54.1106 22.4219 54.3555C22.6286 54.6004 22.774 54.8683 22.8582 55.1592C22.9424 55.4424 22.9845 55.7141 22.9845 55.9744C22.9845 56.2959 22.9347 56.5867 22.8352 56.847C22.7357 57.1072 22.6018 57.3483 22.4334 57.5703C22.265 57.7846 22.0736 57.9836 21.8593 58.1673C21.645 58.351 21.423 58.5233 21.1934 58.684C20.9638 58.8447 20.7341 58.9978 20.5045 59.1433C20.2749 59.2887 20.0605 59.4341 19.8615 59.5796C19.6702 59.725 19.5018 59.8781 19.3563 60.0388C19.2109 60.1919 19.1114 60.3565 19.0578 60.5325H22.973V61.7036Z" fill="black"/>
<path d="M42.5376 55.6172C42.4912 55.183 42.2957 54.8449 41.951 54.603C41.6096 54.361 41.1655 54.2401 40.6186 54.2401C40.2341 54.2401 39.9044 54.2981 39.6293 54.4141C39.3542 54.5301 39.1437 54.6875 38.9979 54.8864C38.852 55.0852 38.7775 55.3123 38.7741 55.5675C38.7741 55.7796 38.8222 55.9635 38.9183 56.1193C39.0178 56.2751 39.152 56.4077 39.321 56.517C39.4901 56.6231 39.6773 56.7126 39.8828 56.7855C40.0883 56.8584 40.2955 56.9197 40.5043 56.9695L41.4588 57.2081C41.8433 57.2976 42.2128 57.4186 42.5675 57.571C42.9254 57.7235 43.2453 57.9157 43.527 58.1477C43.812 58.3797 44.0374 58.6598 44.2031 58.9879C44.3688 59.3161 44.4517 59.7005 44.4517 60.1413C44.4517 60.7379 44.2992 61.2633 43.9943 61.7173C43.6894 62.1681 43.2486 62.5211 42.6719 62.7763C42.0985 63.0282 41.4041 63.1541 40.5888 63.1541C39.7966 63.1541 39.1089 63.0315 38.5256 62.7862C37.9455 62.541 37.4915 62.183 37.1634 61.7124C36.8385 61.2417 36.6629 60.6683 36.6364 59.9922H38.451C38.4775 60.3468 38.5869 60.6418 38.7791 60.8771C38.9714 61.1125 39.2216 61.2881 39.5298 61.4041C39.8414 61.5201 40.1894 61.5781 40.5739 61.5781C40.9749 61.5781 41.3262 61.5185 41.6278 61.3991C41.9328 61.2765 42.1714 61.1075 42.3438 60.892C42.5161 60.6733 42.6039 60.4181 42.6072 60.1264C42.6039 59.8613 42.526 59.6425 42.3736 59.4702C42.2211 59.2945 42.0073 59.1487 41.7322 59.0327C41.4605 58.9134 41.1423 58.8073 40.7777 58.7145L39.6193 58.4162C38.7808 58.2008 38.1179 57.8743 37.6307 57.4368C37.1468 56.996 36.9048 56.411 36.9048 55.6818C36.9048 55.0819 37.0672 54.5566 37.392 54.1058C37.7202 53.6551 38.166 53.3054 38.7294 53.0568C39.2929 52.8049 39.9309 52.679 40.6435 52.679C41.366 52.679 41.9991 52.8049 42.5426 53.0568C43.0895 53.3054 43.5187 53.6518 43.8303 54.0959C44.1418 54.5367 44.3026 55.0438 44.3125 55.6172H42.5376ZM47.794 63.1541C47.3101 63.1541 46.8742 63.0679 46.4864 62.8956C46.102 62.7199 45.797 62.4614 45.5717 62.12C45.3496 61.7786 45.2386 61.3577 45.2386 60.8572C45.2386 60.4264 45.3181 60.0701 45.4772 59.7884C45.6363 59.5066 45.8534 59.2812 46.1285 59.1122C46.4036 58.9432 46.7135 58.8156 47.0582 58.7294C47.4062 58.6399 47.7658 58.5753 48.137 58.5355C48.5844 58.4891 48.9474 58.4477 49.2258 58.4112C49.5042 58.3714 49.7064 58.3118 49.8323 58.2322C49.9616 58.1494 50.0262 58.0218 50.0262 57.8494V57.8196C50.0262 57.4451 49.9152 57.1551 49.6931 56.9496C49.471 56.7441 49.1512 56.6413 48.7336 56.6413C48.2928 56.6413 47.9431 56.7375 47.6846 56.9297C47.4294 57.1219 47.257 57.349 47.1675 57.6108L45.4871 57.3722C45.6197 56.9081 45.8385 56.5204 46.1434 56.2088C46.4483 55.8939 46.8212 55.6586 47.262 55.5028C47.7028 55.3438 48.19 55.2642 48.7236 55.2642C49.0915 55.2642 49.4578 55.3073 49.8224 55.3935C50.1869 55.4796 50.52 55.6222 50.8217 55.821C51.1233 56.0166 51.3652 56.2834 51.5475 56.6214C51.7331 56.9595 51.8259 57.3821 51.8259 57.8892V63H50.0958V61.951H50.0361C49.9268 62.1631 49.7726 62.362 49.5738 62.5476C49.3782 62.7299 49.1313 62.8774 48.833 62.9901C48.538 63.0994 48.1917 63.1541 47.794 63.1541ZM48.2613 61.8317C48.6226 61.8317 48.9358 61.7604 49.2009 61.6179C49.4661 61.4721 49.6699 61.2798 49.8124 61.0412C49.9583 60.8026 50.0312 60.5424 50.0312 60.2607V59.3608C49.9748 59.4072 49.8787 59.4503 49.7428 59.4901C49.6102 59.5298 49.4611 59.5646 49.2954 59.5945C49.1297 59.6243 48.9656 59.6508 48.8032 59.674C48.6408 59.6972 48.4999 59.7171 48.3806 59.7337C48.1121 59.7701 47.8718 59.8298 47.6597 59.9126C47.4476 59.9955 47.2802 60.1115 47.1576 60.2607C47.035 60.4065 46.9736 60.5954 46.9736 60.8274C46.9736 61.1589 47.0946 61.4091 47.3366 61.5781C47.5785 61.7472 47.8868 61.8317 48.2613 61.8317ZM55.413 63.1541C54.9291 63.1541 54.4933 63.0679 54.1055 62.8956C53.721 62.7199 53.4161 62.4614 53.1907 62.12C52.9687 61.7786 52.8576 61.3577 52.8576 60.8572C52.8576 60.4264 52.9372 60.0701 53.0963 59.7884C53.2553 59.5066 53.4724 59.2812 53.7475 59.1122C54.0226 58.9432 54.3325 58.8156 54.6772 58.7294C55.0252 58.6399 55.3848 58.5753 55.7561 58.5355C56.2035 58.4891 56.5664 58.4477 56.8448 58.4112C57.1232 58.3714 57.3254 58.3118 57.4514 58.2322C57.5806 58.1494 57.6453 58.0218 57.6453 57.8494V57.8196C57.6453 57.4451 57.5342 57.1551 57.3122 56.9496C57.0901 56.7441 56.7703 56.6413 56.3526 56.6413C55.9118 56.6413 55.5622 56.7375 55.3036 56.9297C55.0484 57.1219 54.8761 57.349 54.7866 57.6108L53.1062 57.3722C53.2388 56.9081 53.4575 56.5204 53.7625 56.2088C54.0674 55.8939 54.4402 55.6586 54.8811 55.5028C55.3219 55.3438 55.8091 55.2642 56.3427 55.2642C56.7106 55.2642 57.0768 55.3073 57.4414 55.3935C57.806 55.4796 58.1391 55.6222 58.4407 55.821C58.7423 56.0166 58.9843 56.2834 59.1666 56.6214C59.3522 56.9595 59.445 57.3821 59.445 57.8892V63H57.7149V61.951H57.6552C57.5458 62.1631 57.3917 62.362 57.1928 62.5476C56.9973 62.7299 56.7504 62.8774 56.4521 62.9901C56.1571 63.0994 55.8107 63.1541 55.413 63.1541ZM55.8803 61.8317C56.2416 61.8317 56.5548 61.7604 56.82 61.6179C57.0851 61.4721 57.289 61.2798 57.4315 61.0412C57.5773 60.8026 57.6502 60.5424 57.6502 60.2607V59.3608C57.5939 59.4072 57.4978 59.4503 57.3619 59.4901C57.2293 59.5298 57.0802 59.5646 56.9144 59.5945C56.7487 59.6243 56.5847 59.6508 56.4223 59.674C56.2598 59.6972 56.119 59.7171 55.9997 59.7337C55.7312 59.7701 55.4909 59.8298 55.2788 59.9126C55.0667 59.9955 54.8993 60.1115 54.7767 60.2607C54.654 60.4065 54.5927 60.5954 54.5927 60.8274C54.5927 61.1589 54.7137 61.4091 54.9556 61.5781C55.1976 61.7472 55.5058 61.8317 55.8803 61.8317ZM64.6478 55.3636V56.7557H60.2579V55.3636H64.6478ZM61.3417 53.5341H63.1415V60.7031C63.1415 60.9451 63.1779 61.1307 63.2508 61.2599C63.3271 61.3859 63.4265 61.4721 63.5491 61.5185C63.6718 61.5649 63.8076 61.5881 63.9568 61.5881C64.0695 61.5881 64.1722 61.5798 64.265 61.5632C64.3612 61.5466 64.4341 61.5317 64.4838 61.5185L64.7871 62.9254C64.6909 62.9586 64.5534 62.995 64.3744 63.0348C64.1987 63.0746 63.9833 63.0978 63.7281 63.1044C63.2773 63.1177 62.8713 63.0497 62.5101 62.9006C62.1488 62.7481 61.8621 62.5128 61.65 62.1946C61.4412 61.8764 61.3384 61.4787 61.3417 61.0014V53.5341Z" fill="black"/>
<path d="M99 77V115H1V77H99Z" fill="white"/>
<path d="M99 77V115H1V77H99Z" stroke="black" stroke-width="2"/>
<circle cx="20" cy="96" r="9" fill="white" stroke="black" stroke-width="2"/>
<path d="M18 92.4142C18 91.5233 19.0771 91.0771 19.7071 91.7071L23.2929 95.2929C23.6834 95.6834 23.6834 96.3166 23.2929 96.7071L19.7071 100.293C19.0771 100.923 18 100.477 18 99.5858V92.4142Z" fill="black"/>
<path d="M36.3082 90.8182H38.3913L40.8821 95.3224H40.9815L43.4723 90.8182H45.5554L41.8516 97.2017V101H40.0121V97.2017L36.3082 90.8182ZM47.2471 101.154C46.7632 101.154 46.3273 101.068 45.9396 100.896C45.5551 100.72 45.2502 100.461 45.0248 100.12C44.8027 99.7786 44.6917 99.3577 44.6917 98.8572C44.6917 98.4264 44.7712 98.0701 44.9303 97.7884C45.0894 97.5066 45.3065 97.2812 45.5816 97.1122C45.8567 96.9432 46.1666 96.8156 46.5113 96.7294C46.8593 96.6399 47.2189 96.5753 47.5901 96.5355C48.0376 96.4891 48.4005 96.4477 48.6789 96.4112C48.9573 96.3714 49.1595 96.3118 49.2854 96.2322C49.4147 96.1494 49.4793 96.0218 49.4793 95.8494V95.8196C49.4793 95.4451 49.3683 95.1551 49.1462 94.9496C48.9242 94.7441 48.6043 94.6413 48.1867 94.6413C47.7459 94.6413 47.3962 94.7375 47.1377 94.9297C46.8825 95.1219 46.7101 95.349 46.6207 95.6108L44.9403 95.3722C45.0728 94.9081 45.2916 94.5204 45.5965 94.2088C45.9014 93.8939 46.2743 93.6586 46.7151 93.5028C47.1559 93.3438 47.6432 93.2642 48.1768 93.2642C48.5447 93.2642 48.9109 93.3073 49.2755 93.3935C49.6401 93.4796 49.9732 93.6222 50.2748 93.821C50.5764 94.0166 50.8183 94.2834 51.0006 94.6214C51.1862 94.9595 51.279 95.3821 51.279 95.8892V101H49.5489V99.951H49.4893C49.3799 100.163 49.2258 100.362 49.0269 100.548C48.8314 100.73 48.5844 100.877 48.2861 100.99C47.9912 101.099 47.6448 101.154 47.2471 101.154ZM47.7144 99.8317C48.0757 99.8317 48.3889 99.7604 48.654 99.6179C48.9192 99.4721 49.123 99.2798 49.2655 99.0412C49.4114 98.8026 49.4843 98.5424 49.4843 98.2607V97.3608C49.428 97.4072 49.3318 97.4503 49.1959 97.4901C49.0634 97.5298 48.9142 97.5646 48.7485 97.5945C48.5828 97.6243 48.4187 97.6508 48.2563 97.674C48.0939 97.6972 47.953 97.7171 47.8337 97.7337C47.5653 97.7701 47.325 97.8298 47.1128 97.9126C46.9007 97.9955 46.7333 98.1115 46.6107 98.2607C46.4881 98.4065 46.4268 98.5954 46.4268 98.8274C46.4268 99.1589 46.5477 99.4091 46.7897 99.5781C47.0316 99.7472 47.3399 99.8317 47.7144 99.8317ZM52.6687 101V93.3636H54.4137V94.6364H54.4933C54.6325 94.1955 54.8711 93.8558 55.2092 93.6172C55.5506 93.3752 55.94 93.2543 56.3775 93.2543C56.4769 93.2543 56.588 93.2592 56.7106 93.2692C56.8366 93.2758 56.941 93.2874 57.0238 93.304V94.9595C56.9476 94.933 56.8266 94.9098 56.6609 94.8899C56.4985 94.8667 56.341 94.8551 56.1886 94.8551C55.8605 94.8551 55.5655 94.9264 55.3036 95.0689C55.0451 95.2081 54.8413 95.402 54.6921 95.6506C54.543 95.8991 54.4684 96.1858 54.4684 96.5107V101H52.6687ZM57.7995 101V93.3636H59.5992V101H57.7995ZM62.8296 96.5256V101H61.0299V93.3636H62.75V94.6612H62.8395C63.0152 94.2337 63.2953 93.8939 63.6797 93.642C64.0675 93.3902 64.5464 93.2642 65.1165 93.2642C65.6435 93.2642 66.1026 93.3769 66.4937 93.6023C66.8881 93.8277 67.193 94.1541 67.4084 94.5817C67.6272 95.0092 67.7349 95.5279 67.7316 96.1378V101H65.9319V96.4162C65.9319 95.9058 65.7993 95.5064 65.5341 95.218C65.2723 94.9297 64.9094 94.7855 64.4454 94.7855C64.1305 94.7855 63.8504 94.8551 63.6052 94.9943C63.3632 95.1302 63.1726 95.3274 63.0334 95.5859C62.8975 95.8445 62.8296 96.1577 62.8296 96.5256Z" fill="black"/>
<path d="M99 115V146C99 149.866 95.866 153 92 153H8C4.13401 153 1 149.866 1 146V115H99Z" fill="#F5D1D1"/>
<path d="M99 115V146C99 149.866 95.866 153 92 153H8C4.13401 153 1 149.866 1 146V115H99Z" stroke="black" stroke-width="2"/>
<rect x="11" y="125" width="18" height="18" rx="9" fill="white"/>
<rect x="11" y="125" width="18" height="18" rx="9" stroke="#DC2727" stroke-width="2"/>
<path d="M17 131L23 137M23 131L17 137" stroke="#DC2727" stroke-width="2" stroke-linecap="round" stroke-linejoin="round"/>
<path d="M37.0043 139V128.818H38.8487V133.496H38.973L42.9453 128.818H45.1974L41.2599 133.387L45.2322 139H43.0149L39.9773 134.635L38.8487 135.967V139H37.0043ZM48.1768 139.154C47.6929 139.154 47.257 139.068 46.8692 138.896C46.4848 138.72 46.1798 138.461 45.9545 138.12C45.7324 137.779 45.6214 137.358 45.6214 136.857C45.6214 136.426 45.7009 136.07 45.86 135.788C46.0191 135.507 46.2362 135.281 46.5113 135.112C46.7864 134.943 47.0963 134.816 47.441 134.729C47.789 134.64 48.1486 134.575 48.5198 134.536C48.9673 134.489 49.3302 134.448 49.6086 134.411C49.887 134.371 50.0892 134.312 50.2151 134.232C50.3444 134.149 50.409 134.022 50.409 133.849V133.82C50.409 133.445 50.298 133.155 50.0759 132.95C49.8539 132.744 49.534 132.641 49.1164 132.641C48.6756 132.641 48.3259 132.737 48.0674 132.93C47.8122 133.122 47.6398 133.349 47.5503 133.611L45.87 133.372C46.0025 132.908 46.2213 132.52 46.5262 132.209C46.8311 131.894 47.204 131.659 47.6448 131.503C48.0856 131.344 48.5728 131.264 49.1065 131.264C49.4744 131.264 49.8406 131.307 50.2052 131.393C50.5698 131.48 50.9029 131.622 51.2045 131.821C51.5061 132.017 51.748 132.283 51.9303 132.621C52.1159 132.96 52.2087 133.382 52.2087 133.889V139H50.4786V137.951H50.419C50.3096 138.163 50.1555 138.362 49.9566 138.548C49.761 138.73 49.5141 138.877 49.2158 138.99C48.9208 139.099 48.5745 139.154 48.1768 139.154ZM48.6441 137.832C49.0054 137.832 49.3186 137.76 49.5837 137.618C49.8489 137.472 50.0527 137.28 50.1952 137.041C50.3411 136.803 50.414 136.542 50.414 136.261V135.361C50.3576 135.407 50.2615 135.45 50.1256 135.49C49.9931 135.53 49.8439 135.565 49.6782 135.594C49.5125 135.624 49.3484 135.651 49.186 135.674C49.0236 135.697 48.8827 135.717 48.7634 135.734C48.495 135.77 48.2547 135.83 48.0425 135.913C47.8304 135.996 47.663 136.112 47.5404 136.261C47.4178 136.406 47.3565 136.595 47.3565 136.827C47.3565 137.159 47.4774 137.409 47.7194 137.578C47.9613 137.747 48.2696 137.832 48.6441 137.832ZM55.3981 128.818V139H53.5984V128.818H55.3981ZM59.6626 139.134C59.0627 139.134 58.5257 138.98 58.0518 138.672C57.5778 138.364 57.2033 137.916 56.9282 137.33C56.6531 136.743 56.5156 136.03 56.5156 135.192C56.5156 134.343 56.6548 133.627 56.9332 133.044C57.2149 132.457 57.5944 132.015 58.0717 131.717C58.5489 131.415 59.0809 131.264 59.6676 131.264C60.115 131.264 60.4829 131.34 60.7712 131.493C61.0596 131.642 61.2883 131.823 61.4573 132.035C61.6264 132.244 61.7573 132.441 61.8501 132.626H61.9247V128.818H63.7293V139H61.9595V137.797H61.8501C61.7573 137.982 61.623 138.18 61.4474 138.388C61.2717 138.594 61.0397 138.77 60.7514 138.915C60.463 139.061 60.1001 139.134 59.6626 139.134ZM60.1647 137.658C60.5459 137.658 60.8707 137.555 61.1391 137.349C61.4076 137.141 61.6114 136.851 61.7507 136.479C61.8899 136.108 61.9595 135.676 61.9595 135.182C61.9595 134.688 61.8899 134.259 61.7507 133.894C61.6148 133.53 61.4126 133.246 61.1441 133.044C60.879 132.842 60.5525 132.741 60.1647 132.741C59.7637 132.741 59.4289 132.845 59.1605 133.054C58.892 133.263 58.6898 133.551 58.5539 133.919C58.418 134.287 58.3501 134.708 58.3501 135.182C58.3501 135.659 58.418 136.085 58.5539 136.46C58.6931 136.831 58.897 137.124 59.1654 137.339C59.4372 137.552 59.7703 137.658 60.1647 137.658ZM65.2271 139V131.364H67.0269V139H65.2271ZM68.4575 139V131.364H70.2026V132.636H70.2821C70.4213 132.196 70.6599 131.856 70.998 131.617C71.3394 131.375 71.7288 131.254 72.1663 131.254C72.2658 131.254 72.3768 131.259 72.4994 131.269C72.6254 131.276 72.7298 131.287 72.8126 131.304V132.96C72.7364 132.933 72.6154 132.91 72.4497 132.89C72.2873 132.867 72.1299 132.855 71.9774 132.855C71.6493 132.855 71.3543 132.926 71.0925 133.069C70.8339 133.208 70.6301 133.402 70.481 133.651C70.3318 133.899 70.2572 134.186 70.2572 134.511V139H68.4575Z" fill="black"/>
</svg>
